<svg xmlns="http://www.w3.org/2000/svg" xmlns:svg="http://www.w3.org/2000/svg" id="svg171" width="1010" height="1000" version="1.1" viewBox="0 0 1010 1000"><g id="surface1"><path style="stroke:none;fill-rule:nonzero;fill:#68ccf8;fill-opacity:1" id="path162" d="M 16.195312 14.285156 C 138.109375 11.351562 260.152344 12.753906 382.066406 12.882812 C 382.449219 335.96875 381.554688 659.054688 382.191406 982.144531 C 260.152344 980.867188 137.726562 986.351562 15.8125 979.464844 C 17.980469 657.78125 17.089844 335.96875 16.195312 14.285156 Z M 16.195312 14.285156"/><path style="stroke:none;fill-rule:nonzero;fill:#69ccf8;fill-opacity:1" id="path164" d="M 627.296875 13.902344 C 749.210938 8.671875 871.253906 12.882812 993.292969 13.648438 C 993.550781 336.222656 992.402344 658.929688 993.804688 981.632812 C 871.890625 981.886719 749.847656 984.566406 628.0625 980.230469 C 628.0625 777.039062 630.484375 573.722656 626.785156 370.535156 C 668.613281 370.027344 710.441406 369.515625 752.269531 369.515625 C 752.652344 288.902344 752.527344 208.289062 752.269531 127.679688 C 710.441406 127.679688 668.613281 127.167969 626.785156 127.933594 C 628.316406 89.921875 628.445312 51.914062 627.296875 13.902344 Z M 627.296875 13.902344"/><path style="stroke:none;fill-rule:nonzero;fill:#dd006a;fill-opacity:.55686277" id="path166" d="M 510.230469 127.679688 C 549.125 127.296875 588.019531 127.421875 626.785156 127.933594 C 623.980469 208.800781 623.597656 289.667969 626.785156 370.535156 C 587.890625 370.027344 548.996094 369.769531 510.230469 369.898438 C 509.972656 289.15625 509.972656 208.417969 510.230469 127.679688 Z M 510.230469 127.679688"/><path style="stroke:none;fill-rule:nonzero;fill:#5a368b;fill-opacity:1" id="path168" d="M 626.785156 127.933594 C 668.613281 127.167969 710.441406 127.679688 752.269531 127.679688 C 752.527344 208.289062 752.652344 288.902344 752.269531 369.515625 C 710.441406 369.515625 668.613281 370.027344 626.785156 370.535156 C 623.597656 289.667969 623.980469 208.800781 626.785156 127.933594 Z M 626.785156 127.933594"/></g></svg>